<?xml version="1.0" standalone="no"?>
<!DOCTYPE svg PUBLIC "-//W3C//DTD SVG 20010904//EN"
 "http://www.w3.org/TR/2001/REC-SVG-20010904/DTD/svg10.dtd">
<svg version="1.0" xmlns="http://www.w3.org/2000/svg"
 width="300.000000pt" height="300.000000pt" viewBox="0 0 300.000000 300.000000"
 preserveAspectRatio="xMidYMid meet">
<metadata>
Created by potrace 1.11, written by Peter Selinger 2001-2013
</metadata>
<g transform="translate(0.000000,300.000000) scale(0.100000,-0.100000)"
fill="#000000" stroke="none">
<path d="M240 2991 c-93 -20 -173 -83 -213 -169 l-22 -47 0 -1275 0 -1275 22
-47 c28 -60 91 -123 151 -151 l47 -22 1275 0 1275 0 46 21 c66 31 114 78 146
142 l28 57 0 1275 0 1275 -22 47 c-28 60 -91 123 -151 151 l-47 22 -1250 1
c-687 1 -1266 -1 -1285 -5z m1365 -346 c32 -9 81 -28 109 -43 61 -32 166 -133
192 -185 l20 -38 109 -2 c100 -2 116 -6 177 -34 131 -61 224 -180 254 -325 50
-239 -120 -479 -369 -520 l-67 -11 0 -136 c0 -75 -3 -173 -7 -218 l-6 -83
-537 0 -538 0 -7 122 c-4 68 -5 166 -3 219 l3 96 -67 11 c-179 31 -316 158
-363 339 -20 76 -19 134 3 214 57 203 222 329 432 329 l87 0 38 55 c124 181
335 263 540 210z m1045 -1820 c10 -12 10 -18 0 -30 -10 -12 -45 -15 -191 -15
-110 0 -179 -4 -179 -10 0 -6 74 -11 188 -12 179 -3 187 -4 187 -23 0 -19 -8
-20 -187 -23 -111 -1 -188 -6 -188 -12 0 -6 77 -11 188 -12 179 -3 187 -4 187
-23 0 -19 -8 -20 -187 -23 -114 -1 -188 -6 -188 -12 0 -6 69 -10 179 -10 146
0 181 -3 191 -15 10 -12 10 -18 0 -30 -10 -13 -53 -15 -272 -15 l-259 0 -81
46 -82 47 -345 -12 c-190 -6 -474 -16 -631 -22 -295 -11 -390 -8 -499 17 -87
20 -123 42 -119 74 2 20 14 29 58 47 97 38 223 46 524 34 149 -6 440 -18 647
-26 l377 -15 73 44 74 45 261 0 c221 1 263 -1 274 -14z"/>
</g>
</svg>
