<?xml version="1.0" standalone="no"?>
<!DOCTYPE svg PUBLIC "-//W3C//DTD SVG 20010904//EN"
 "http://www.w3.org/TR/2001/REC-SVG-20010904/DTD/svg10.dtd">
<svg version="1.0" xmlns="http://www.w3.org/2000/svg"
 width="300.000000pt" height="300.000000pt" viewBox="0 0 300.000000 300.000000"
 preserveAspectRatio="xMidYMid meet">
<metadata>
Created by potrace 1.11, written by Peter Selinger 2001-2013
</metadata>
<g transform="translate(0.000000,300.000000) scale(0.100000,-0.100000)"
fill="#000000" stroke="none">
<path d="M199 2986 c-70 -25 -132 -79 -172 -151 l-22 -40 0 -1290 0 -1290 24
-49 c30 -61 76 -107 137 -137 l49 -24 1276 -2 c1274 -3 1277 -3 1327 18 62 26
122 83 153 146 l24 48 0 1286 0 1285 -25 49 c-32 63 -81 112 -139 139 l-46 21
-1275 2 c-1025 2 -1282 0 -1311 -11z m1377 -347 c126 -23 266 -122 323 -229
l23 -45 112 0 c99 0 117 -3 166 -26 119 -57 199 -142 240 -256 19 -53 22 -77
18 -165 -3 -92 -7 -110 -37 -170 -38 -77 -116 -159 -181 -193 -56 -28 -148
-55 -189 -55 l-31 0 0 -165 0 -165 -535 0 -535 0 0 165 0 165 -33 0 c-88 0
-219 60 -290 133 -207 212 -146 563 121 694 72 36 82 38 181 40 l106 2 42 65
c107 165 295 242 499 205z m1069 -1829 c0 -13 -28 -15 -182 -18 -175 -2 -183
-3 -183 -22 0 -19 7 -20 186 -20 144 0 185 -3 182 -12 -4 -10 -52 -14 -186
-16 -173 -2 -182 -3 -182 -22 0 -19 9 -20 182 -22 134 -2 182 -6 186 -15 3
-10 -38 -13 -182 -13 -179 0 -186 -1 -186 -20 0 -19 8 -20 183 -22 154 -3 182
-5 182 -18 0 -13 -37 -15 -263 -18 l-262 -2 -79 45 -78 45 -514 -15 c-283 -8
-568 -17 -634 -21 -197 -10 -411 23 -439 68 -16 26 11 47 88 68 100 28 225 33
506 20 140 -6 422 -17 625 -24 l370 -14 75 43 75 43 265 -1 c228 -2 265 -4
265 -17z"/>
</g>
</svg>
